<mxfile host="app.diagrams.net" modified="2023-09-24T16:42:34.999Z" agent="Mozilla/5.0 (Windows NT 10.0; Win64; x64) AppleWebKit/537.36 (KHTML, like Gecko) Chrome/116.0.0.0 Safari/537.36" version="21.8.2" etag="IfgKzNqZx0E0saiXnSwi" type="github">
  <diagram name="1 oldal" id="0mUFcDUESzcr13AcSiT4">
    <mxGraphModel>
      <root>
        <mxCell id="0" />
        <mxCell id="1" parent="0" />
      </root>
    </mxGraphModel>
  </diagram>
</mxfile>
